<?xml version="1.0" encoding="utf-8"?>
<!-- Generator: Adobe Illustrator 25.2.3, SVG Export Plug-In . SVG Version: 6.00 Build 0)  -->
<svg version="1.1" id="Слой_1" xmlns="http://www.w3.org/2000/svg" xmlns:xlink="http://www.w3.org/1999/xlink" x="0px" y="0px"
	 viewBox="0 0 24.7 20.5" style="enable-background:new 0 0 24.7 20.5;" xml:space="preserve">
<style type="text/css">
	.st0{fill:#64B977;}
</style>
<path class="st0" d="M24,4.8L24,4.8c-0.6-0.7-1.5-1.1-2.3-1.1h-9.1c-0.7,0-1.2,0.5-1.2,1.2s0.5,1.2,1.2,1.2h9.1
	c0.2,0,0.4,0.1,0.5,0.2c0.1,0.1,0.2,0.3,0.1,0.5l-0.4,2.4h-6c-0.7,0-1.2,0.5-1.2,1.2c0,0.7,0.5,1.2,1.2,1.2h5.6l-0.4,2.1
	c0,0.1-0.2,0.2-0.3,0.2H9.5c-0.1,0-0.3-0.1-0.3-0.2L6.9,1C6.8,0.4,6.3,0,5.7,0H1.2C0.5,0,0,0.5,0,1.2c0,0.7,0.5,1.2,1.2,1.2h3.6
	l2.1,11.8C7,15,7.4,15.6,8.1,16c-0.2,0.4-0.3,0.8-0.3,1.3c0,1.8,1.5,3.2,3.2,3.2s3.2-1.5,3.2-3.2c0-0.3,0-0.6-0.1-0.9h1.7
	c-0.1,0.3-0.1,0.6-0.1,0.9c0,1.8,1.5,3.2,3.2,3.2s3.2-1.5,3.2-3.2c0-0.4-0.1-0.8-0.2-1.2c0.7-0.4,1.2-1.1,1.3-1.8l1.3-7
	C24.8,6.4,24.6,5.5,24,4.8z M11.9,17.2c0,0.5-0.4,0.9-0.9,0.9s-0.9-0.4-0.9-0.9c0-0.5,0.4-0.9,0.9-0.9S11.9,16.8,11.9,17.2z
	 M18.2,17.2c0-0.5,0.4-0.9,0.9-0.9s0.9,0.4,0.9,0.9c0,0.5-0.4,0.9-0.9,0.9S18.2,17.7,18.2,17.2z"/>
</svg>
