<?xml version="1.0" encoding="utf-8"?>
<!-- Generator: Adobe Illustrator 25.2.3, SVG Export Plug-In . SVG Version: 6.00 Build 0)  -->
<svg version="1.1" id="Слой_1" xmlns="http://www.w3.org/2000/svg" xmlns:xlink="http://www.w3.org/1999/xlink" x="0px" y="0px"
	 viewBox="0 0 24 22.1" style="enable-background:new 0 0 24 22.1;" xml:space="preserve">
<style type="text/css">
	.st0{fill:#64B977;}
</style>
<path class="st0" d="M23.7,5c-0.3-1.1-0.9-2.2-1.7-3c-0.8-0.8-1.9-1.5-3-1.8c-1.4-0.3-4-0.5-7,2.3C9-0.3,6.3-0.2,5,0.2
	C3.8,0.5,2.8,1.1,2,1.9C1.1,2.8,0.6,3.8,0.3,5c-0.4,1.5-0.3,3,0.1,4.5c0.4,1.5,1.2,2.8,2.4,3.8l8.4,8.4c0.1,0.1,0.3,0.2,0.4,0.3
	c0.2,0.1,0.3,0.1,0.5,0.1c0.3,0,0.6-0.1,0.9-0.4l8.4-8.4c1.1-1,2-2.4,2.4-3.8C24.1,8,24.1,6.5,23.7,5z M19.5,11.6L12,19.1l-7.5-7.5
	C3.6,10.9,3,9.9,2.7,8.9c-0.3-1-0.4-2.2-0.1-3.2c0.2-0.7,0.5-1.4,1.1-1.9s1.2-0.9,1.9-1.1c0.3-0.1,0.6-0.1,0.9-0.1
	C7.4,2.5,8.2,2.8,9,3.2c0.8,0.4,1.5,1,2.1,1.7c0.1,0.1,0.2,0.2,0.4,0.3c0.2,0.1,0.3,0.1,0.5,0.1c0.2,0,0.3,0,0.5-0.1
	c0.2-0.1,0.3-0.2,0.4-0.3c1.9-2,3.9-2.8,5.6-2.4c0.7,0.2,1.4,0.6,1.9,1.2c0.5,0.5,0.9,1.2,1,2c0.3,1.1,0.2,2.2-0.1,3.2
	C20.9,9.9,20.3,10.9,19.5,11.6z"/>
</svg>
