<?xml version="1.0" encoding="utf-8"?>
<!-- Generator: Adobe Illustrator 25.2.3, SVG Export Plug-In . SVG Version: 6.00 Build 0)  -->
<svg version="1.1" id="Слой_1" xmlns="http://www.w3.org/2000/svg" xmlns:xlink="http://www.w3.org/1999/xlink" x="0px" y="0px"
	 viewBox="0 0 24 22.1" style="enable-background:new 0 0 24 22.1;" xml:space="preserve">
<style type="text/css">
	.st0{fill:#22FF9B;}
</style>
<path class="st0" d="M23.7,5c-0.3-1.2-0.9-2.2-1.7-3c-0.8-0.8-1.9-1.5-3-1.8c-1.4-0.3-4-0.5-7,2.3C9-0.3,6.3-0.2,5,0.2
	C3.8,0.5,2.8,1.1,2,1.9C1.1,2.8,0.5,3.8,0.3,5c-0.4,1.5-0.3,3,0.1,4.5c0.4,1.5,1.2,2.8,2.4,3.8l8.4,8.4c0.1,0.1,0.3,0.2,0.4,0.3
	c0.2,0.1,0.3,0.1,0.5,0.1c0.3,0,0.6-0.1,0.9-0.4l8.4-8.4c1.1-1,2-2.4,2.4-3.8C24.1,8,24.1,6.5,23.7,5z"/>
</svg>
