<?xml version="1.0" encoding="utf-8"?>
<!-- Generator: Adobe Illustrator 25.2.3, SVG Export Plug-In . SVG Version: 6.00 Build 0)  -->
<svg version="1.1" id="Слой_1" xmlns="http://www.w3.org/2000/svg" xmlns:xlink="http://www.w3.org/1999/xlink" x="0px" y="0px"
	 viewBox="0 0 437 126.7" style="enable-background:new 0 0 437 126.7;" xml:space="preserve">
<style type="text/css">
	.st0{fill:#FFFFFF;}
	.st1{fill:#64B977;}
</style>
<path class="st0" d="M60,29.6C54.2,21.8,40.4,3.4,38,1.2c-3.2-2.8-9.5,0-11.3,0.9c-2,0.7-8.4,3.1-8.7,7.3c-0.1,1.6,0.7,8.2,1.6,15.6
	L4.4,31.3l-0.1-9.9l-4.3,0l0.4,73.6h0v11.8H52V95.1H4.8L4.4,36l15.8-6.5c0.8,5.9,1.6,11.8,2.2,15.6c0.1,0.8,0.6,1.5,1.3,1.9
	c0.7,0.4,1.6,0.5,2.3,0.1l32.8-13.5c0.8-0.3,1.3-1,1.6-1.7C60.6,31.1,60.5,30.3,60,29.6z"/>
<g>
	<path class="st1" d="M273.6,106.8V93.4h13v13.5H273.6z"/>
	<path class="st1" d="M328.7,107.9c-5,0-9.6-0.8-13.8-2.3c-4.2-1.5-7.8-3.8-10.8-6.8c-3-3-5.3-6.7-7-11.2s-2.5-9.6-2.5-15.4
		c0-5.7,0.8-10.8,2.5-15.3c1.7-4.5,4-8.2,7-11.2s6.6-5.3,10.8-6.8c4.2-1.6,8.8-2.3,13.8-2.3c5.1,0,9.8,0.8,14,2.3
		c4.2,1.6,7.8,3.8,10.8,6.8s5.3,6.7,6.9,11.2c1.7,4.5,2.5,9.6,2.5,15.3c0,5.8-0.8,11-2.5,15.4c-1.7,4.5-4,8.2-6.9,11.2
		c-3,3-6.5,5.2-10.8,6.8C338.5,107.1,333.8,107.9,328.7,107.9z M328.7,96.7c6.9,0,12.2-2.2,15.9-6.7c3.7-4.4,5.6-10.4,5.6-17.9
		c0-7.5-1.9-13.5-5.6-17.9c-3.7-4.4-9-6.6-15.9-6.6c-6.8,0-12.1,2.2-15.8,6.6c-3.8,4.4-5.7,10.4-5.7,17.9c0,7.5,1.9,13.4,5.7,17.9
		C316.6,94.5,321.9,96.7,328.7,96.7z"/>
	<path class="st1" d="M437,106.8h-14.4l-34.4-50.8v50.8h-12.1V37.5H390l35,51.7V37.5h12V106.8z"/>
</g>
<path class="st0" d="M97.8,106.8v-5.6c-1.6,2.1-3.6,3.8-6.2,4.9c-2.6,1.2-5.5,1.7-8.8,1.7c-5,0-9.1-1.3-12.3-3.9
	c-3.2-2.6-4.8-6.2-4.8-10.9c0-5.1,1.7-8.9,5.1-11.2c3.4-2.4,7.9-3.7,13.7-3.9c2.3-0.1,4.5-0.2,6.7-0.2c2.1,0,4.2,0.1,6.1,0.2v-3.9
	c0-2.9-0.9-5-2.6-6.2c-1.7-1.3-3.9-1.9-6.7-1.9c-2.7,0-4.9,0.7-6.5,2c-1.6,1.4-2.7,3.2-3.4,5.5l-10.9-1.8c0.9-4.4,3.1-8.1,6.7-11
	c3.5-2.9,8.3-4.4,14.2-4.4c5.9,0,10.8,1.3,14.6,4c3.9,2.7,5.8,7.3,5.8,13.9v32.7H97.8z M97.3,85.8c-1.6-0.1-3.4-0.1-5.4-0.1
	c-2,0-3.9,0.1-5.8,0.2c-2.7,0.1-4.8,0.7-6.3,1.7c-1.5,1.1-2.3,2.7-2.3,4.7s0.7,3.6,2.2,4.8c1.4,1.1,3.3,1.7,5.7,1.7
	c3.5,0,6.4-0.8,8.6-2.5c2.3-1.7,3.4-3.9,3.4-6.6V85.8z"/>
<path class="st0" d="M122,106.8V57.3h11.4v6.5c1.6-2.3,3.7-4.1,6.4-5.5c2.7-1.3,5.7-2,9.1-2c4,0,7.3,0.8,9.9,2.5
	c2.6,1.7,4.5,3.8,5.7,6.3c1.8-2.9,4.2-5.1,7.3-6.6c3.1-1.5,6.4-2.2,9.9-2.2c5.3,0,9.5,1.5,12.8,4.6c3.3,3,4.9,7.4,4.9,13.2v32.9
	h-11.8V76.1c0-2.9-0.8-5.3-2.5-7c-1.6-1.7-4.1-2.6-7.5-2.6c-3,0-5.6,1-7.8,2.9c-2.2,1.9-3.3,4.4-3.3,7.6v29.9h-11.8V76.2
	c0-3-0.8-5.4-2.5-7.1s-4.1-2.6-7.5-2.6c-3,0-5.6,1-7.8,2.9c-2.2,1.9-3.3,4.4-3.3,7.6v29.9H122z"/>
<path class="st0" d="M212.6,126.7V57.3h11.7v6.2c1.6-2.3,3.8-4.1,6.6-5.4c2.8-1.3,5.9-1.9,9.2-1.9c2.9,0,5.7,0.5,8.3,1.6
	c2.6,1.1,4.9,2.7,6.8,4.8c1.9,2.1,3.4,4.8,4.5,7.9c1.1,3.2,1.7,6.8,1.7,10.9c0,8.5-2.2,15-6.5,19.5c-4.3,4.5-9.8,6.8-16.5,6.8
	c-2.9,0-5.6-0.5-8-1.4c-2.4-0.9-4.4-2.2-6-3.9v24.2H212.6z M224.4,86c0,3.6,1.2,6.4,3.7,8.6c2.5,2.2,5.5,3.2,9.1,3.2
	c3.8,0,6.8-1.4,9-4.3c2.3-2.8,3.4-6.7,3.4-11.6c0-4.8-1.1-8.6-3.3-11.4c-2.2-2.8-5.3-4.3-9.2-4.3c-3.4,0-6.4,1.2-8.9,3.5
	c-2.5,2.3-3.8,5.5-3.8,9.6V86z"/>
</svg>
