<svg width="40" height="40" viewBox="0 0 40 40" fill="none" xmlns="http://www.w3.org/2000/svg">
<g clip-path="url(#clip0_1146_18)">
<path d="M38.8999 11.9001C38.0999 11.0001 36.9999 10.4001 35.7999 10.4001H20.3999C19.8999 10.4001 19.3999 10.8001 19.3999 11.4001C19.3999 12.0001 19.8999 12.4001 20.3999 12.4001H35.7999C36.3999 12.4001 36.9999 12.7001 37.3999 13.1001C37.7999 13.6001 37.9999 14.2001 37.7999 14.8001L36.8999 19.8001H25.8999C25.3999 19.8001 24.8999 20.2001 24.8999 20.8001C24.8999 21.4001 25.3999 21.8001 25.8999 21.8001H36.5999L35.6999 26.6001C35.5999 27.3001 34.8999 27.8001 34.1999 27.8001H14.9999C14.2999 27.8001 13.6999 27.3001 13.4999 26.6001L9.5999 4.9001C9.4999 4.4001 9.0999 4.1001 8.5999 4.1001H0.899902C0.399902 4.1001 -0.100098 4.5001 -0.100098 5.1001C-0.100098 5.7001 0.399902 6.1001 0.899902 6.1001H7.7999L11.5999 27.1001C11.7999 28.5001 12.7999 29.5001 14.0999 29.9001C13.5999 30.6001 13.1999 31.5001 13.1999 32.5001C13.1999 35.0001 15.1999 37.0001 17.6999 37.0001C20.1999 37.0001 22.1999 35.0001 22.1999 32.5001C22.1999 31.6001 21.8999 30.7001 21.3999 30.0001H27.4999C26.9999 30.7001 26.6999 31.6001 26.6999 32.5001C26.6999 35.0001 28.6999 37.0001 31.1999 37.0001C33.6999 37.0001 35.6999 35.0001 35.6999 32.5001C35.6999 31.5001 35.3999 30.6001 34.8999 29.9001C36.1999 29.6001 37.2999 28.5001 37.5999 27.1001L39.7999 15.3001C39.9999 14.1001 39.6999 12.9001 38.8999 11.9001ZM20.1999 32.4001C20.1999 33.8001 19.0999 34.9001 17.6999 34.9001C16.2999 34.9001 15.1999 33.8001 15.1999 32.4001C15.1999 31.0001 16.2999 29.9001 17.6999 29.9001C19.0999 29.9001 20.1999 31.0001 20.1999 32.4001ZM31.2999 34.9001C29.8999 34.9001 28.7999 33.8001 28.7999 32.4001C28.7999 31.0001 29.8999 29.9001 31.2999 29.9001C32.6999 29.9001 33.7999 31.0001 33.7999 32.4001C33.7999 33.8001 32.6999 34.9001 31.2999 34.9001Z" fill="black"/>
<path d="M38.8999 11.9001C38.0999 11.0001 36.9999 10.4001 35.7999 10.4001H20.3999C19.8999 10.4001 19.3999 10.8001 19.3999 11.4001C19.3999 12.0001 19.8999 12.4001 20.3999 12.4001H35.7999C36.3999 12.4001 36.9999 12.7001 37.3999 13.1001C37.7999 13.6001 37.9999 14.2001 37.7999 14.8001L36.8999 19.8001H25.8999C25.3999 19.8001 24.8999 20.2001 24.8999 20.8001C24.8999 21.4001 25.3999 21.8001 25.8999 21.8001H36.5999L35.6999 26.6001C35.5999 27.3001 34.8999 27.8001 34.1999 27.8001H14.9999C14.2999 27.8001 13.6999 27.3001 13.4999 26.6001L9.5999 4.9001C9.4999 4.4001 9.0999 4.1001 8.5999 4.1001H0.899902C0.399902 4.1001 -0.100098 4.5001 -0.100098 5.1001C-0.100098 5.7001 0.399902 6.1001 0.899902 6.1001H7.7999L11.5999 27.1001C11.7999 28.5001 12.7999 29.5001 14.0999 29.9001C13.5999 30.6001 13.1999 31.5001 13.1999 32.5001C13.1999 35.0001 15.1999 37.0001 17.6999 37.0001C20.1999 37.0001 22.1999 35.0001 22.1999 32.5001C22.1999 31.6001 21.8999 30.7001 21.3999 30.0001H27.4999C26.9999 30.7001 26.6999 31.6001 26.6999 32.5001C26.6999 35.0001 28.6999 37.0001 31.1999 37.0001C33.6999 37.0001 35.6999 35.0001 35.6999 32.5001C35.6999 31.5001 35.3999 30.6001 34.8999 29.9001C36.1999 29.6001 37.2999 28.5001 37.5999 27.1001L39.7999 15.3001C39.9999 14.1001 39.6999 12.9001 38.8999 11.9001ZM20.1999 32.4001C20.1999 33.8001 19.0999 34.9001 17.6999 34.9001C16.2999 34.9001 15.1999 33.8001 15.1999 32.4001C15.1999 31.0001 16.2999 29.9001 17.6999 29.9001C19.0999 29.9001 20.1999 31.0001 20.1999 32.4001ZM31.2999 34.9001C29.8999 34.9001 28.7999 33.8001 28.7999 32.4001C28.7999 31.0001 29.8999 29.9001 31.2999 29.9001C32.6999 29.9001 33.7999 31.0001 33.7999 32.4001C33.7999 33.8001 32.6999 34.9001 31.2999 34.9001Z" fill="black"/>
</g>
<defs>
<clipPath id="clip0_1146_18">
<rect width="40" height="40" fill="white"/>
</clipPath>
</defs>
</svg>
